# Blender v2.93.4 OBJ File: 'RepulsorFrame.blend'
# www.blender.org
mtllib repulsor_frame.mtl
o repulsor_frame
v 1.000000 1.000000 0.000000
v 0.562500 1.000000 0.000000
v 0.562500 1.000000 0.437500
v 1.000000 1.000000 0.437500
v 1.000000 0.562500 0.437500
v 0.562500 0.562500 0.437500
v 0.562500 0.562500 0.000000
v 1.000000 0.562500 0.000000
v 0.000000 1.000000 0.000000
v 0.000000 1.000000 0.437500
v 0.437500 1.000000 0.437500
v 0.437500 1.000000 0.000000
v 0.000000 0.562500 0.437500
v 0.437500 0.562500 0.437500
v 0.437500 0.562500 0.000000
v 0.000000 0.562500 0.000000
v 1.000000 1.000000 1.000000
v 1.000000 1.000000 0.562500
v 0.562500 1.000000 0.562500
v 0.562500 1.000000 1.000000
v 1.000000 0.562500 0.562500
v 0.562500 0.562500 0.562500
v 0.562500 0.562500 1.000000
v 1.000000 0.562500 1.000000
v 0.000000 1.000000 1.000000
v 0.437500 1.000000 1.000000
v 0.437500 1.000000 0.562500
v 0.000000 1.000000 0.562500
v 0.437500 0.562500 0.562500
v 0.437500 0.562500 1.000000
v 0.000000 0.562500 1.000000
v 0.000000 0.562500 0.562500
v 1.000000 0.000000 0.000000
v 1.000000 -0.000000 0.437500
v 0.562500 -0.000000 0.437500
v 0.562500 0.000000 0.000000
v 1.000000 0.437500 0.437500
v 0.562500 0.437500 0.437500
v 0.562500 0.437500 0.000000
v 1.000000 0.437500 0.000000
v 0.000000 0.000000 0.000000
v 0.437500 0.000000 0.000000
v 0.437500 -0.000000 0.437500
v 0.000000 -0.000000 0.437500
v 0.000000 0.437500 0.437500
v 0.437500 0.437500 0.437500
v 0.437500 0.437500 0.000000
v 0.000000 0.437500 0.000000
v 1.000000 -0.000000 1.000000
v 0.562500 -0.000000 1.000000
v 0.562500 -0.000000 0.562500
v 1.000000 -0.000000 0.562500
v 1.000000 0.437500 0.562500
v 0.562500 0.437500 0.562500
v 0.562500 0.437500 1.000000
v 1.000000 0.437500 1.000000
v 0.000000 -0.000000 1.000000
v 0.000000 -0.000000 0.562500
v 0.437500 -0.000000 0.562500
v 0.437500 -0.000000 1.000000
v 0.000000 0.437500 0.562500
v 0.437500 0.437500 0.562500
v 0.437500 0.437500 1.000000
v 0.000000 0.437500 1.000000
v 0.562500 0.437500 0.000000
v 0.562500 0.437500 0.437500
v 1.000000 0.437500 0.437500
v 1.000000 0.437500 0.000000
v 0.000000 0.562500 0.562500
v 0.000000 1.000000 0.562500
v 0.437500 1.000000 0.562500
v 0.437500 0.562500 0.562500
vt 0.000100 0.999900
vt 0.000100 0.000100
vt 0.999900 0.000100
vt 0.999900 0.999900
vt 0.999900 0.000100
vt 0.000100 0.999900
vt 0.000100 0.000100
vt 1.000000 0.000000
vt 1.000000 1.000000
vt 0.000000 1.000000
vt 0.000000 0.000000
vt 0.999900 0.999900
vt 0.000100 0.999900
vt 0.000100 0.000100
vt 0.999900 0.000100
vt 0.999900 0.000100
vt 0.999900 0.999900
vt 0.000100 0.999900
vt 0.999900 0.000100
vt 0.999900 0.999900
vt 0.000100 0.000100
vt 0.000100 0.000100
vt 0.999900 0.000100
vt 0.999900 0.999900
vt 0.000100 0.999900
vt 0.000100 0.000100
vt 0.999900 0.000100
vt 0.000100 0.999900
vt 0.000100 0.000100
vt 0.999900 0.000100
vt 0.999900 0.999900
vt 0.000100 0.999900
vt 0.000100 0.999900
vt 0.999900 0.000100
vt 0.999900 0.999900
vt 0.000100 0.000100
vt 0.999900 0.999900
vt 0.000100 0.999900
vt 0.000100 0.000100
vt 0.999900 0.000100
vt 0.999900 0.999900
vt 0.999900 0.999900
vt 0.000100 0.999900
vt 0.000100 0.000100
vt 0.999900 0.000100
vt 0.000100 0.000100
vt 0.999900 0.000100
vt 0.999900 0.999900
vt 0.000000 0.000000
vt 1.000000 0.000000
vt 1.000000 1.000000
vt 0.000000 1.000000
vt 0.999900 0.000100
vt 0.999900 0.999900
vt 0.000100 0.999900
vt 0.000100 0.000100
vt 0.999900 0.000100
vt 0.999900 0.999900
vt 0.000100 0.999900
vt 0.000100 0.000100
vt 0.999900 0.000100
vt 0.000100 0.999900
vt 0.999900 0.000100
vt 0.999900 0.999900
vt 0.000100 0.999900
vt 0.000100 0.000100
vt 0.999900 0.000100
vt 0.999900 0.999900
vt 0.000100 0.999900
vt 0.000100 0.000100
vt 0.999900 0.000100
vt 0.999900 0.999900
vt 0.000100 0.999900
vt 0.999900 0.999900
vt 0.000100 0.999900
vt 0.000100 0.000100
vt 0.999900 0.000100
vt 0.000100 0.999900
vt 0.000100 0.000100
vt 0.000100 0.999900
vt 0.000100 0.000100
vt 0.999900 0.000100
vt 0.999900 0.999900
vt 0.999900 0.999900
vt 0.000100 0.999900
vt 0.000100 0.000100
vt 0.999900 0.000100
vt 1.000000 1.000000
vt 0.000000 1.000000
vt 0.000000 0.000000
vt 1.000000 0.000000
vt 0.999900 0.999900
vt 0.000100 0.999900
vt 0.999900 0.000100
vt 0.999900 0.999900
vt 0.000100 0.999900
vt 0.000100 0.000100
vt 0.999900 0.000100
vt 0.999900 0.999900
vt 0.000100 0.999900
vt 0.000100 0.000100
vt 0.999900 0.000100
vt 0.000100 0.999900
vt 0.000100 0.000100
vt 0.999900 0.000100
vt 0.999900 0.999900
vt 0.000100 0.999900
vt 0.999900 0.000100
vt 0.999900 0.999900
vt 0.000100 0.999900
vt 0.000100 0.000100
vt 0.999900 0.000100
vt 0.000100 0.999900
vt 0.000100 0.000100
vt 0.999900 0.999900
vt 0.000100 0.000100
vt 0.999900 0.000100
vt 0.999900 0.999900
vt 0.000100 0.000100
vt 0.999900 0.000100
vt 0.999900 0.999900
vt 0.000100 0.999900
vt 0.000100 0.999900
vt 0.000100 0.000100
vt 0.999900 0.000100
vt 0.999900 0.999900
vt 0.000000 1.000000
vt 0.000000 0.000000
vt 1.000000 0.000000
vt 1.000000 1.000000
vt 0.999900 0.000100
vt 0.999900 0.999900
vt 0.000100 0.000100
vt 0.000100 0.999900
vt 0.999900 0.000100
vt 0.999900 0.999900
vt 0.000100 0.999900
vt 0.000100 0.000100
vt 0.999900 0.000100
vt 0.999900 0.000100
vt 0.999900 0.999900
vt 0.000100 0.999900
vt 0.000100 0.000100
vt 0.000100 0.000100
vt 0.999900 0.000100
vt 0.999900 0.999900
vt 0.000100 0.999900
vt 0.999900 0.999900
vt 0.000100 0.999900
vt 0.999900 0.000100
vt 0.999900 0.999900
vt 0.000100 0.999900
vt 0.999900 0.000100
vt 0.999905 0.999895
vt 0.000105 0.999905
vt 0.000095 0.000105
vt 0.000100 0.999900
vt 0.000100 0.000100
vt 0.999900 0.000100
vt 0.000100 0.000100
vt 0.999900 0.000100
vt 0.999900 0.999900
vt 0.000100 0.999900
vt 0.999900 0.000100
vt 0.999900 0.999900
vt 0.000100 0.999900
vt 0.000100 0.000100
vn 0.0000 1.0000 0.0000
vn 0.0000 -0.0000 1.0000
vn -1.0000 0.0000 0.0000
vn 0.0000 -1.0000 -0.0000
vn 1.0000 0.0000 0.0000
vn 0.0000 0.0000 -1.0000
usemtl Material
s off
f 1/1/1 2/2/1 3/3/1 4/4/1
f 5/5/2 4/4/2 3/6/2 6/7/2
f 6/8/3 3/9/3 2/10/3 7/11/3
f 7/12/4 8/13/4 5/14/4 6/15/4
f 8/16/5 1/17/5 4/18/5 5/14/5
f 7/19/6 2/20/6 1/1/6 8/21/6
f 9/22/1 10/23/1 11/24/1 12/25/1
f 13/26/2 14/27/2 11/24/2 10/28/2
f 14/29/5 15/30/5 12/31/5 11/32/5
f 15/33/4 14/29/4 13/34/4 16/35/4
f 16/36/3 13/34/3 10/37/3 9/38/3
f 15/39/6 16/40/6 9/41/6 12/25/6
f 17/42/1 18/43/1 19/44/1 20/45/1
f 21/46/6 22/47/6 19/48/6 18/43/6
f 22/49/3 23/50/3 20/51/3 19/52/3
f 23/53/4 22/54/4 21/55/4 24/56/4
f 24/56/5 21/57/5 18/58/5 17/59/5
f 23/60/2 24/61/2 17/42/2 20/62/2
f 25/63/1 26/64/1 27/65/1 28/66/1
f 29/67/5 27/68/5 26/69/5 30/70/5
f 30/70/4 31/71/4 32/72/4 29/73/4
f 31/71/3 25/74/3 28/75/3 32/76/3
f 30/77/2 26/64/2 25/78/2 31/79/2
f 33/80/4 34/81/4 35/82/4 36/83/4
f 37/84/2 38/85/2 35/86/2 34/87/2
f 38/88/3 39/89/3 36/90/3 35/91/3
f 40/92/5 37/93/5 34/81/5 33/94/5
f 39/95/6 40/96/6 33/97/6 36/98/6
f 41/99/4 42/100/4 43/101/4 44/102/4
f 45/103/2 44/104/2 43/105/2 46/106/2
f 46/107/5 43/101/5 42/108/5 47/109/5
f 47/110/1 48/111/1 45/112/1 46/106/1
f 48/113/3 41/114/3 44/102/3 45/115/3
f 47/110/6 42/116/6 41/117/6 48/118/6
f 49/119/4 50/120/4 51/121/4 52/122/4
f 53/123/6 52/124/6 51/125/6 54/126/6
f 54/127/3 51/128/3 50/129/3 55/130/3
f 55/131/1 56/132/1 53/123/1 54/133/1
f 56/134/5 49/119/5 52/135/5 53/136/5
f 55/137/2 50/138/2 49/139/2 56/132/2
f 57/140/4 58/141/4 59/142/4 60/143/4
f 61/144/6 62/145/6 59/146/6 58/147/6
f 62/148/5 63/149/5 60/143/5 59/150/5
f 63/151/1 62/152/1 61/144/1 64/153/1
f 64/154/3 61/155/3 58/156/3 57/140/3
f 63/151/2 64/157/2 57/158/2 60/159/2
f 65/160/1 66/161/1 67/162/1 68/163/1
f 69/164/6 70/165/6 71/166/6 72/167/6
